<?xml version="1.0" encoding="UTF-8" standalone="no"?>
<!DOCTYPE svg PUBLIC "-//W3C//DTD SVG 1.1//EN"
 "http://www.w3.org/Graphics/SVG/1.1/DTD/svg11.dtd">
<!-- Generated by graphviz version 2.43.0 (0)
 -->
<!-- Title: dependency&#45;cruiser output Pages: 1 -->
<svg width="1019pt" height="398pt"
 viewBox="0.00 0.00 1019.00 398.00" xmlns="http://www.w3.org/2000/svg" xmlns:xlink="http://www.w3.org/1999/xlink">
<g id="graph0" class="graph" transform="scale(1 1) rotate(0) translate(4 394)">
<title>dependency&#45;cruiser output</title>
<polygon fill="white" stroke="transparent" points="-4,4 -4,-394 1015,-394 1015,4 -4,4"/>
<g id="clust1" class="cluster">
<title>cluster_src</title>
<path fill="#ffffff" stroke="black" stroke-width="2" d="M20,-8C20,-8 991,-8 991,-8 997,-8 1003,-14 1003,-20 1003,-20 1003,-370 1003,-370 1003,-376 997,-382 991,-382 991,-382 20,-382 20,-382 14,-382 8,-376 8,-370 8,-370 8,-20 8,-20 8,-14 14,-8 20,-8"/>
<text text-anchor="middle" x="505.5" y="-370.8" font-family="Helvetica,sans-Serif" font-weight="bold" font-size="9.00">src</text>
</g>
<g id="clust2" class="cluster">
<title>cluster_src/adapter</title>
<path fill="#ffffff" stroke="black" stroke-width="2" d="M441,-86C441,-86 712,-86 712,-86 718,-86 724,-92 724,-98 724,-98 724,-344 724,-344 724,-350 718,-356 712,-356 712,-356 441,-356 441,-356 435,-356 429,-350 429,-344 429,-344 429,-98 429,-98 429,-92 435,-86 441,-86"/>
<text text-anchor="middle" x="576.5" y="-344.8" font-family="Helvetica,sans-Serif" font-weight="bold" font-size="9.00">adapter</text>
</g>
<g id="clust3" class="cluster">
<title>cluster_src/adapter/controller</title>
<path fill="#ffffff" stroke="black" stroke-width="2" d="M457,-94C457,-94 540,-94 540,-94 546,-94 552,-100 552,-106 552,-106 552,-134 552,-134 552,-140 546,-146 540,-146 540,-146 457,-146 457,-146 451,-146 445,-140 445,-134 445,-134 445,-106 445,-106 445,-100 451,-94 457,-94"/>
<text text-anchor="middle" x="498.5" y="-134.8" font-family="Helvetica,sans-Serif" font-weight="bold" font-size="9.00">controller</text>
</g>
<g id="clust4" class="cluster">
<title>cluster_src/adapter/repository</title>
<path fill="#ffffff" stroke="black" stroke-width="2" d="M449,-154C449,-154 704,-154 704,-154 710,-154 716,-160 716,-166 716,-166 716,-318 716,-318 716,-324 710,-330 704,-330 704,-330 449,-330 449,-330 443,-330 437,-324 437,-318 437,-318 437,-166 437,-166 437,-160 443,-154 449,-154"/>
<text text-anchor="middle" x="576.5" y="-318.8" font-family="Helvetica,sans-Serif" font-weight="bold" font-size="9.00">repository</text>
</g>
<g id="clust5" class="cluster">
<title>cluster_src/adapter/repository/memory</title>
<path fill="#ffffff" stroke="black" stroke-width="2" d="M573,-162C573,-162 695,-162 695,-162 701,-162 707,-168 707,-174 707,-174 707,-202 707,-202 707,-208 701,-214 695,-214 695,-214 573,-214 573,-214 567,-214 561,-208 561,-202 561,-202 561,-174 561,-174 561,-168 567,-162 573,-162"/>
<text text-anchor="middle" x="634" y="-202.8" font-family="Helvetica,sans-Serif" font-weight="bold" font-size="9.00">memory</text>
</g>
<g id="clust6" class="cluster">
<title>cluster_src/adapter/repository/postgres</title>
<path fill="#ffffff" stroke="black" stroke-width="2" d="M572,-222C572,-222 696,-222 696,-222 702,-222 708,-228 708,-234 708,-234 708,-292 708,-292 708,-298 702,-304 696,-304 696,-304 572,-304 572,-304 566,-304 560,-298 560,-292 560,-292 560,-234 560,-234 560,-228 566,-222 572,-222"/>
<text text-anchor="middle" x="634" y="-292.8" font-family="Helvetica,sans-Serif" font-weight="bold" font-size="9.00">postgres</text>
</g>
<g id="clust7" class="cluster">
<title>cluster_src/application</title>
<path fill="#ffffff" stroke="black" stroke-width="2" d="M90,-94C90,-94 409,-94 409,-94 415,-94 421,-100 421,-106 421,-106 421,-164 421,-164 421,-170 415,-176 409,-176 409,-176 90,-176 90,-176 84,-176 78,-170 78,-164 78,-164 78,-106 78,-106 78,-100 84,-94 90,-94"/>
<text text-anchor="middle" x="249.5" y="-164.8" font-family="Helvetica,sans-Serif" font-weight="bold" font-size="9.00">application</text>
</g>
<g id="clust8" class="cluster">
<title>cluster_src/domain</title>
<path fill="#ffffff" stroke="black" stroke-width="2" d="M744,-63C744,-63 983,-63 983,-63 989,-63 995,-69 995,-75 995,-75 995,-197 995,-197 995,-203 989,-209 983,-209 983,-209 744,-209 744,-209 738,-209 732,-203 732,-197 732,-197 732,-75 732,-75 732,-69 738,-63 744,-63"/>
<text text-anchor="middle" x="863.5" y="-197.8" font-family="Helvetica,sans-Serif" font-weight="bold" font-size="9.00">domain</text>
</g>
<g id="clust9" class="cluster">
<title>cluster_src/domain/entity</title>
<path fill="#ffffff" stroke="black" stroke-width="2" d="M929,-101C929,-101 975,-101 975,-101 981,-101 987,-107 987,-113 987,-113 987,-141 987,-141 987,-147 981,-153 975,-153 975,-153 929,-153 929,-153 923,-153 917,-147 917,-141 917,-141 917,-113 917,-113 917,-107 923,-101 929,-101"/>
<text text-anchor="middle" x="952" y="-141.8" font-family="Helvetica,sans-Serif" font-weight="bold" font-size="9.00">entity</text>
</g>
<g id="clust10" class="cluster">
<title>cluster_src/domain/exception</title>
<path fill="#ffffff" stroke="black" stroke-width="2" d="M752,-131C752,-131 897,-131 897,-131 903,-131 909,-137 909,-143 909,-143 909,-171 909,-171 909,-177 903,-183 897,-183 897,-183 752,-183 752,-183 746,-183 740,-177 740,-171 740,-171 740,-143 740,-143 740,-137 746,-131 752,-131"/>
<text text-anchor="middle" x="824.5" y="-171.8" font-family="Helvetica,sans-Serif" font-weight="bold" font-size="9.00">exception</text>
</g>
<g id="clust11" class="cluster">
<title>cluster_src/domain/port</title>
<path fill="#ffffff" stroke="black" stroke-width="2" d="M781.5,-71C781.5,-71 867.5,-71 867.5,-71 873.5,-71 879.5,-77 879.5,-83 879.5,-83 879.5,-111 879.5,-111 879.5,-117 873.5,-123 867.5,-123 867.5,-123 781.5,-123 781.5,-123 775.5,-123 769.5,-117 769.5,-111 769.5,-111 769.5,-83 769.5,-83 769.5,-77 775.5,-71 781.5,-71"/>
<text text-anchor="middle" x="824.5" y="-111.8" font-family="Helvetica,sans-Serif" font-weight="bold" font-size="9.00">port</text>
</g>
<g id="clust12" class="cluster">
<title>cluster_src/usecase</title>
<path fill="#ffffff" stroke="black" stroke-width="2" d="M604,-16C604,-16 664,-16 664,-16 670,-16 676,-22 676,-28 676,-28 676,-56 676,-56 676,-62 670,-68 664,-68 664,-68 604,-68 604,-68 598,-68 592,-62 592,-56 592,-56 592,-28 592,-28 592,-22 598,-16 604,-16"/>
<text text-anchor="middle" x="634" y="-56.8" font-family="Helvetica,sans-Serif" font-weight="bold" font-size="9.00">usecase</text>
</g>
<!-- src/adapter/controller/UserController.ts -->
<g id="node1" class="node">
<title>src/adapter/controller/UserController.ts</title>
<g id="a_node1"><a xlink:href="src/adapter/controller/UserController.ts" xlink:title="UserController.ts">
<path fill="#ddfeff" stroke="black" d="M538,-120C538,-120 459,-120 459,-120 456,-120 453,-117 453,-114 453,-114 453,-108 453,-108 453,-105 456,-102 459,-102 459,-102 538,-102 538,-102 541,-102 544,-105 544,-108 544,-108 544,-114 544,-114 544,-117 541,-120 538,-120"/>
<text text-anchor="middle" x="498.5" y="-108.8" font-family="Helvetica,sans-Serif" font-size="9.00">UserController.ts</text>
</a>
</g>
</g>
<!-- src/usecase/GetUsers.ts -->
<g id="node2" class="node">
<title>src/usecase/GetUsers.ts</title>
<g id="a_node2"><a xlink:href="src/usecase/GetUsers.ts" xlink:title="GetUsers.ts">
<path fill="#ddfeff" stroke="black" d="M662,-42C662,-42 606,-42 606,-42 603,-42 600,-39 600,-36 600,-36 600,-30 600,-30 600,-27 603,-24 606,-24 606,-24 662,-24 662,-24 665,-24 668,-27 668,-30 668,-30 668,-36 668,-36 668,-39 665,-42 662,-42"/>
<text text-anchor="middle" x="634" y="-30.8" font-family="Helvetica,sans-Serif" font-size="9.00">GetUsers.ts</text>
</a>
</g>
</g>
<!-- src/adapter/controller/UserController.ts&#45;&gt;src/usecase/GetUsers.ts -->
<g id="edge1" class="edge">
<title>src/adapter/controller/UserController.ts&#45;&gt;src/usecase/GetUsers.ts</title>
<path fill="none" stroke="#000000" stroke-width="2" stroke-opacity="0.200000" d="M515.08,-101.9C539.09,-87.87 585.19,-60.93 612.09,-45.22"/>
<polygon fill="#000000" fill-opacity="0.200000" stroke="#000000" stroke-width="2" stroke-opacity="0.200000" points="613.4,-46.88 617.52,-42.04 611.28,-43.26 613.4,-46.88"/>
</g>
<!-- src/domain/port/UserRepository.ts -->
<g id="node4" class="node">
<title>src/domain/port/UserRepository.ts</title>
<g id="a_node4"><a xlink:href="src/domain/port/UserRepository.ts" xlink:title="UserRepository.ts">
<path fill="#ddfeff" stroke="black" d="M865.5,-97C865.5,-97 783.5,-97 783.5,-97 780.5,-97 777.5,-94 777.5,-91 777.5,-91 777.5,-85 777.5,-85 777.5,-82 780.5,-79 783.5,-79 783.5,-79 865.5,-79 865.5,-79 868.5,-79 871.5,-82 871.5,-85 871.5,-85 871.5,-91 871.5,-91 871.5,-94 868.5,-97 865.5,-97"/>
<text text-anchor="middle" x="824.5" y="-85.8" font-family="Helvetica,sans-Serif" font-size="9.00">UserRepository.ts</text>
</a>
</g>
</g>
<!-- src/usecase/GetUsers.ts&#45;&gt;src/domain/port/UserRepository.ts -->
<g id="edge23" class="edge">
<title>src/usecase/GetUsers.ts&#45;&gt;src/domain/port/UserRepository.ts</title>
<path fill="none" stroke="#000000" stroke-width="2" stroke-opacity="0.200000" d="M666.13,-42.08C699.24,-51.74 751.6,-67.02 786.72,-77.27"/>
<polygon fill="#000000" fill-opacity="0.200000" stroke="#000000" stroke-width="2" stroke-opacity="0.200000" points="786.29,-79.33 792.64,-79 787.47,-75.3 786.29,-79.33"/>
</g>
<!-- src/domain/entity/User.ts -->
<g id="node8" class="node">
<title>src/domain/entity/User.ts</title>
<g id="a_node8"><a xlink:href="src/domain/entity/User.ts" xlink:title="User.ts">
<path fill="#ddfeff" stroke="black" d="M973,-127C973,-127 931,-127 931,-127 928,-127 925,-124 925,-121 925,-121 925,-115 925,-115 925,-112 928,-109 931,-109 931,-109 973,-109 973,-109 976,-109 979,-112 979,-115 979,-115 979,-121 979,-121 979,-124 976,-127 973,-127"/>
<text text-anchor="middle" x="952" y="-115.8" font-family="Helvetica,sans-Serif" font-size="9.00">User.ts</text>
</a>
</g>
</g>
<!-- src/usecase/GetUsers.ts&#45;&gt;src/domain/entity/User.ts -->
<g id="edge22" class="edge">
<title>src/usecase/GetUsers.ts&#45;&gt;src/domain/entity/User.ts</title>
<path fill="none" stroke="#000000" stroke-width="2" stroke-opacity="0.200000" d="M668.13,-29.8C722.13,-26.15 830.91,-25.38 909,-68 923.88,-76.12 935.71,-91.81 942.97,-103.46"/>
<polygon fill="#000000" fill-opacity="0.200000" stroke="#000000" stroke-width="2" stroke-opacity="0.200000" points="941.28,-104.73 946.16,-108.81 944.89,-102.58 941.28,-104.73"/>
</g>
<!-- src/adapter/repository/RepositoryFactory.ts -->
<g id="node3" class="node">
<title>src/adapter/repository/RepositoryFactory.ts</title>
<g id="a_node3"><a xlink:href="src/adapter/repository/RepositoryFactory.ts" xlink:title="RepositoryFactory.ts">
<path fill="#ddfeff" stroke="black" d="M546,-188C546,-188 451,-188 451,-188 448,-188 445,-185 445,-182 445,-182 445,-176 445,-176 445,-173 448,-170 451,-170 451,-170 546,-170 546,-170 549,-170 552,-173 552,-176 552,-176 552,-182 552,-182 552,-185 549,-188 546,-188"/>
<text text-anchor="middle" x="498.5" y="-176.8" font-family="Helvetica,sans-Serif" font-size="9.00">RepositoryFactory.ts</text>
</a>
</g>
</g>
<!-- src/adapter/repository/RepositoryFactory.ts&#45;&gt;src/domain/port/UserRepository.ts -->
<g id="edge2" class="edge">
<title>src/adapter/repository/RepositoryFactory.ts&#45;&gt;src/domain/port/UserRepository.ts</title>
<path fill="none" stroke="#000000" stroke-width="2" stroke-opacity="0.200000" d="M525.9,-169.92C536.46,-166.37 548.77,-162.37 560,-159 637.78,-135.68 729.53,-111.76 781.67,-98.5"/>
<polygon fill="#000000" fill-opacity="0.200000" stroke="#000000" stroke-width="2" stroke-opacity="0.200000" points="782.22,-100.53 787.52,-97.01 781.19,-96.45 782.22,-100.53"/>
</g>
<!-- src/adapter/repository/memory/MemoryUserRepository.ts -->
<g id="node5" class="node">
<title>src/adapter/repository/memory/MemoryUserRepository.ts</title>
<g id="a_node5"><a xlink:href="src/adapter/repository/memory/MemoryUserRepository.ts" xlink:title="MemoryUserRepository.ts">
<path fill="#ddfeff" stroke="black" d="M693,-188C693,-188 575,-188 575,-188 572,-188 569,-185 569,-182 569,-182 569,-176 569,-176 569,-173 572,-170 575,-170 575,-170 693,-170 693,-170 696,-170 699,-173 699,-176 699,-176 699,-182 699,-182 699,-185 696,-188 693,-188"/>
<text text-anchor="middle" x="634" y="-176.8" font-family="Helvetica,sans-Serif" font-size="9.00">MemoryUserRepository.ts</text>
</a>
</g>
</g>
<!-- src/adapter/repository/RepositoryFactory.ts&#45;&gt;src/adapter/repository/memory/MemoryUserRepository.ts -->
<g id="edge3" class="edge">
<title>src/adapter/repository/RepositoryFactory.ts&#45;&gt;src/adapter/repository/memory/MemoryUserRepository.ts</title>
<path fill="none" stroke="#000000" stroke-width="2" stroke-opacity="0.200000" d="M552.26,-179C555.63,-179 559.05,-179 562.49,-179"/>
<polygon fill="#000000" fill-opacity="0.200000" stroke="#000000" stroke-width="2" stroke-opacity="0.200000" points="562.68,-181.1 568.68,-179 562.68,-176.9 562.68,-181.1"/>
</g>
<!-- src/adapter/repository/postgres/PostgresDatabase.ts -->
<g id="node6" class="node">
<title>src/adapter/repository/postgres/PostgresDatabase.ts</title>
<g id="a_node6"><a xlink:href="src/adapter/repository/postgres/PostgresDatabase.ts" xlink:title="PostgresDatabase.ts">
<path fill="#ddfeff" stroke="black" d="M682,-278C682,-278 586,-278 586,-278 583,-278 580,-275 580,-272 580,-272 580,-266 580,-266 580,-263 583,-260 586,-260 586,-260 682,-260 682,-260 685,-260 688,-263 688,-266 688,-266 688,-272 688,-272 688,-275 685,-278 682,-278"/>
<text text-anchor="middle" x="634" y="-266.8" font-family="Helvetica,sans-Serif" font-size="9.00">PostgresDatabase.ts</text>
</a>
</g>
</g>
<!-- src/adapter/repository/RepositoryFactory.ts&#45;&gt;src/adapter/repository/postgres/PostgresDatabase.ts -->
<g id="edge4" class="edge">
<title>src/adapter/repository/RepositoryFactory.ts&#45;&gt;src/adapter/repository/postgres/PostgresDatabase.ts</title>
<path fill="none" stroke="#000000" stroke-width="2" stroke-opacity="0.200000" d="M511.49,-188.13C523.28,-197.66 541.05,-213.64 552,-231 557.77,-240.16 551.86,-246.87 560,-254 564.15,-257.63 568.93,-260.47 574.03,-262.68"/>
<polygon fill="#000000" fill-opacity="0.200000" stroke="#000000" stroke-width="2" stroke-opacity="0.200000" points="573.32,-264.65 579.67,-264.83 574.82,-260.73 573.32,-264.65"/>
</g>
<!-- src/adapter/repository/postgres/PostgresUserRepository.ts -->
<g id="node7" class="node">
<title>src/adapter/repository/postgres/PostgresUserRepository.ts</title>
<g id="a_node7"><a xlink:href="src/adapter/repository/postgres/PostgresUserRepository.ts" xlink:title="PostgresUserRepository.ts">
<path fill="#ddfeff" stroke="black" d="M694,-248C694,-248 574,-248 574,-248 571,-248 568,-245 568,-242 568,-242 568,-236 568,-236 568,-233 571,-230 574,-230 574,-230 694,-230 694,-230 697,-230 700,-233 700,-236 700,-236 700,-242 700,-242 700,-245 697,-248 694,-248"/>
<text text-anchor="middle" x="634" y="-236.8" font-family="Helvetica,sans-Serif" font-size="9.00">PostgresUserRepository.ts</text>
</a>
</g>
</g>
<!-- src/adapter/repository/RepositoryFactory.ts&#45;&gt;src/adapter/repository/postgres/PostgresUserRepository.ts -->
<g id="edge5" class="edge">
<title>src/adapter/repository/RepositoryFactory.ts&#45;&gt;src/adapter/repository/postgres/PostgresUserRepository.ts</title>
<path fill="none" stroke="#000000" stroke-width="2" stroke-opacity="0.200000" d="M511.92,-188.2C523.77,-196.63 542.39,-208.99 560,-217 569.47,-221.31 580,-225.04 590.05,-228.15"/>
<polygon fill="#000000" fill-opacity="0.200000" stroke="#000000" stroke-width="2" stroke-opacity="0.200000" points="589.56,-230.19 595.91,-229.91 590.76,-226.17 589.56,-230.19"/>
</g>
<!-- src/domain/port/UserRepository.ts&#45;&gt;src/domain/entity/User.ts -->
<g id="edge19" class="edge">
<title>src/domain/port/UserRepository.ts&#45;&gt;src/domain/entity/User.ts</title>
<path fill="none" stroke="#000000" stroke-width="2" stroke-opacity="0.200000" d="M863.15,-97C880.9,-101.24 901.86,-106.25 918.85,-110.31"/>
<polygon fill="#000000" fill-opacity="0.200000" stroke="#000000" stroke-width="2" stroke-opacity="0.200000" points="918.59,-112.41 924.92,-111.76 919.57,-108.33 918.59,-112.41"/>
</g>
<!-- src/adapter/repository/memory/MemoryUserRepository.ts&#45;&gt;src/domain/port/UserRepository.ts -->
<g id="edge7" class="edge">
<title>src/adapter/repository/memory/MemoryUserRepository.ts&#45;&gt;src/domain/port/UserRepository.ts</title>
<path fill="none" stroke="#000000" stroke-width="2" stroke-opacity="0.200000" d="M651.29,-169.97C670.42,-159.48 703.19,-141.85 732,-128 753.06,-117.88 777.3,-107.33 795.54,-99.61"/>
<polygon fill="#000000" fill-opacity="0.200000" stroke="#000000" stroke-width="2" stroke-opacity="0.200000" points="796.77,-101.37 801.48,-97.1 795.14,-97.5 796.77,-101.37"/>
</g>
<!-- src/adapter/repository/memory/MemoryUserRepository.ts&#45;&gt;src/domain/entity/User.ts -->
<g id="edge6" class="edge">
<title>src/adapter/repository/memory/MemoryUserRepository.ts&#45;&gt;src/domain/entity/User.ts</title>
<path fill="none" stroke="#000000" stroke-width="2" stroke-opacity="0.200000" d="M661.64,-188.07C713.19,-203.9 828.58,-230.85 909,-186 929.11,-174.78 940.8,-149.53 946.53,-133.15"/>
<polygon fill="#000000" fill-opacity="0.200000" stroke="#000000" stroke-width="2" stroke-opacity="0.200000" points="948.63,-133.51 948.51,-127.16 944.64,-132.2 948.63,-133.51"/>
</g>
<!-- src/adapter/repository/postgres/PostgresUserRepository.ts&#45;&gt;src/domain/port/UserRepository.ts -->
<g id="edge9" class="edge">
<title>src/adapter/repository/postgres/PostgresUserRepository.ts&#45;&gt;src/domain/port/UserRepository.ts</title>
<path fill="none" stroke="#000000" stroke-width="2" stroke-opacity="0.200000" d="M700.24,-232.98C709.32,-229.48 717.68,-224.37 724,-217 736.93,-201.93 720.39,-144.11 732,-128 741.93,-114.22 757.66,-105.13 773.29,-99.15"/>
<polygon fill="#000000" fill-opacity="0.200000" stroke="#000000" stroke-width="2" stroke-opacity="0.200000" points="774.1,-101.09 779.04,-97.09 772.68,-97.14 774.1,-101.09"/>
</g>
<!-- src/adapter/repository/postgres/PostgresUserRepository.ts&#45;&gt;src/domain/entity/User.ts -->
<g id="edge8" class="edge">
<title>src/adapter/repository/postgres/PostgresUserRepository.ts&#45;&gt;src/domain/entity/User.ts</title>
<path fill="none" stroke="#000000" stroke-width="2" stroke-opacity="0.200000" d="M700.17,-246.43C759.95,-249.75 848.18,-245.48 909,-202 932.12,-185.47 943.23,-152.51 947.96,-133.16"/>
<polygon fill="#000000" fill-opacity="0.200000" stroke="#000000" stroke-width="2" stroke-opacity="0.200000" points="950.04,-133.47 949.33,-127.16 945.95,-132.54 950.04,-133.47"/>
</g>
<!-- src/application/Application.ts -->
<g id="node9" class="node">
<title>src/application/Application.ts</title>
<g id="a_node9"><a xlink:href="src/application/Application.ts" xlink:title="Application.ts">
<path fill="#ddfeff" stroke="black" d="M407,-120C407,-120 341,-120 341,-120 338,-120 335,-117 335,-114 335,-114 335,-108 335,-108 335,-105 338,-102 341,-102 341,-102 407,-102 407,-102 410,-102 413,-105 413,-108 413,-108 413,-114 413,-114 413,-117 410,-120 407,-120"/>
<text text-anchor="middle" x="374" y="-108.8" font-family="Helvetica,sans-Serif" font-size="9.00">Application.ts</text>
</a>
</g>
</g>
<!-- src/application/Application.ts&#45;&gt;src/adapter/controller/UserController.ts -->
<g id="edge10" class="edge">
<title>src/application/Application.ts&#45;&gt;src/adapter/controller/UserController.ts</title>
<path fill="none" stroke="#000000" stroke-width="2" stroke-opacity="0.200000" d="M413.09,-111C423.76,-111 435.52,-111 446.8,-111"/>
<polygon fill="#000000" fill-opacity="0.200000" stroke="#000000" stroke-width="2" stroke-opacity="0.200000" points="447,-113.1 453,-111 447,-108.9 447,-113.1"/>
</g>
<!-- src/application/Application.ts&#45;&gt;src/usecase/GetUsers.ts -->
<g id="edge14" class="edge">
<title>src/application/Application.ts&#45;&gt;src/usecase/GetUsers.ts</title>
<path fill="none" stroke="#000000" stroke-width="2" stroke-opacity="0.200000" d="M385.36,-101.68C395.68,-92.92 412.34,-80.11 429,-73 483.42,-49.77 551.8,-39.89 593.94,-35.79"/>
<polygon fill="#000000" fill-opacity="0.200000" stroke="#000000" stroke-width="2" stroke-opacity="0.200000" points="594.19,-37.87 599.96,-35.22 593.79,-33.69 594.19,-37.87"/>
</g>
<!-- src/application/Application.ts&#45;&gt;src/adapter/repository/RepositoryFactory.ts -->
<g id="edge12" class="edge">
<title>src/application/Application.ts&#45;&gt;src/adapter/repository/RepositoryFactory.ts</title>
<path fill="none" stroke="#000000" stroke-width="2" stroke-opacity="0.200000" d="M386.56,-120.16C397.2,-128.34 413.62,-140.34 429,-149 441.35,-155.95 455.62,-162.43 467.92,-167.57"/>
<polygon fill="#000000" fill-opacity="0.200000" stroke="#000000" stroke-width="2" stroke-opacity="0.200000" points="467.44,-169.65 473.79,-169.99 469.04,-165.76 467.44,-169.65"/>
</g>
<!-- src/application/Application.ts&#45;&gt;src/domain/port/UserRepository.ts -->
<g id="edge13" class="edge">
<title>src/application/Application.ts&#45;&gt;src/domain/port/UserRepository.ts</title>
<path fill="none" stroke="#000000" stroke-width="2" stroke-opacity="0.200000" d="M394.54,-101.89C404.6,-97.69 417.2,-93.16 429,-91 549.9,-68.86 695.15,-76.28 771.21,-82.7"/>
<polygon fill="#000000" fill-opacity="0.200000" stroke="#000000" stroke-width="2" stroke-opacity="0.200000" points="771.3,-84.82 777.46,-83.24 771.66,-80.64 771.3,-84.82"/>
</g>
<!-- src/application/Application.ts&#45;&gt;src/adapter/repository/postgres/PostgresDatabase.ts -->
<g id="edge11" class="edge">
<title>src/application/Application.ts&#45;&gt;src/adapter/repository/postgres/PostgresDatabase.ts</title>
<path fill="none" stroke="#000000" stroke-width="2" stroke-opacity="0.200000" d="M376.28,-120.19C379.94,-142.8 392.63,-201.37 429,-230 469.86,-262.16 529.43,-270.47 573.65,-271.58"/>
<polygon fill="#000000" fill-opacity="0.200000" stroke="#000000" stroke-width="2" stroke-opacity="0.200000" points="573.75,-273.69 579.79,-271.7 573.83,-269.49 573.75,-273.69"/>
</g>
<!-- src/application/ApplicationFactory.ts -->
<g id="node10" class="node">
<title>src/application/ApplicationFactory.ts</title>
<g id="a_node10"><a xlink:href="src/application/ApplicationFactory.ts" xlink:title="ApplicationFactory.ts">
<path fill="#ddfeff" stroke="black" d="M190,-120C190,-120 92,-120 92,-120 89,-120 86,-117 86,-114 86,-114 86,-108 86,-108 86,-105 89,-102 92,-102 92,-102 190,-102 190,-102 193,-102 196,-105 196,-108 196,-108 196,-114 196,-114 196,-117 193,-120 190,-120"/>
<text text-anchor="middle" x="141" y="-108.8" font-family="Helvetica,sans-Serif" font-size="9.00">ApplicationFactory.ts</text>
</a>
</g>
</g>
<!-- src/application/ExpressApplication.ts -->
<g id="node11" class="node">
<title>src/application/ExpressApplication.ts</title>
<g id="a_node11"><a xlink:href="src/application/ExpressApplication.ts" xlink:title="ExpressApplication.ts">
<path fill="#ddfeff" stroke="black" d="M316,-120C316,-120 215,-120 215,-120 212,-120 209,-117 209,-114 209,-114 209,-108 209,-108 209,-105 212,-102 215,-102 215,-102 316,-102 316,-102 319,-102 322,-105 322,-108 322,-108 322,-114 322,-114 322,-117 319,-120 316,-120"/>
<text text-anchor="middle" x="265.5" y="-108.8" font-family="Helvetica,sans-Serif" font-size="9.00">ExpressApplication.ts</text>
</a>
</g>
</g>
<!-- src/application/ApplicationFactory.ts&#45;&gt;src/application/ExpressApplication.ts -->
<g id="edge15" class="edge">
<title>src/application/ApplicationFactory.ts&#45;&gt;src/application/ExpressApplication.ts</title>
<path fill="none" stroke="#000000" stroke-width="2" stroke-opacity="0.200000" d="M196.09,-111C198.2,-111 200.33,-111 202.46,-111"/>
<polygon fill="#000000" fill-opacity="0.200000" stroke="#000000" stroke-width="2" stroke-opacity="0.200000" points="202.83,-113.1 208.83,-111 202.83,-108.9 202.83,-113.1"/>
</g>
<!-- src/application/FastifyApplication.ts -->
<g id="node12" class="node">
<title>src/application/FastifyApplication.ts</title>
<g id="a_node12"><a xlink:href="src/application/FastifyApplication.ts" xlink:title="FastifyApplication.ts">
<path fill="#ddfeff" stroke="black" d="M313,-150C313,-150 218,-150 218,-150 215,-150 212,-147 212,-144 212,-144 212,-138 212,-138 212,-135 215,-132 218,-132 218,-132 313,-132 313,-132 316,-132 319,-135 319,-138 319,-138 319,-144 319,-144 319,-147 316,-150 313,-150"/>
<text text-anchor="middle" x="265.5" y="-138.8" font-family="Helvetica,sans-Serif" font-size="9.00">FastifyApplication.ts</text>
</a>
</g>
</g>
<!-- src/application/ApplicationFactory.ts&#45;&gt;src/application/FastifyApplication.ts -->
<g id="edge16" class="edge">
<title>src/application/ApplicationFactory.ts&#45;&gt;src/application/FastifyApplication.ts</title>
<path fill="none" stroke="#000000" stroke-width="2" stroke-opacity="0.200000" d="M178.75,-120C192.2,-123.29 207.53,-127.05 221.47,-130.46"/>
<polygon fill="#000000" fill-opacity="0.200000" stroke="#000000" stroke-width="2" stroke-opacity="0.200000" points="221.02,-132.51 227.35,-131.9 222.02,-128.43 221.02,-132.51"/>
</g>
<!-- src/application/ExpressApplication.ts&#45;&gt;src/application/Application.ts -->
<g id="edge17" class="edge">
<title>src/application/ExpressApplication.ts&#45;&gt;src/application/Application.ts</title>
<path fill="none" stroke="#000000" stroke-width="2" stroke-opacity="0.200000" d="M322.25,-111C324.36,-111 326.47,-111 328.56,-111"/>
<polygon fill="#000000" fill-opacity="0.200000" stroke="#000000" stroke-width="2" stroke-opacity="0.200000" points="328.76,-113.1 334.76,-111 328.76,-108.9 328.76,-113.1"/>
</g>
<!-- src/application/FastifyApplication.ts&#45;&gt;src/application/Application.ts -->
<g id="edge18" class="edge">
<title>src/application/FastifyApplication.ts&#45;&gt;src/application/Application.ts</title>
<path fill="none" stroke="#000000" stroke-width="2" stroke-opacity="0.200000" d="M300.28,-132C307.46,-130.05 314.99,-127.98 322,-126 326.79,-124.65 331.82,-123.2 336.78,-121.76"/>
<polygon fill="#000000" fill-opacity="0.200000" stroke="#000000" stroke-width="2" stroke-opacity="0.200000" points="337.39,-123.77 342.56,-120.07 336.21,-119.74 337.39,-123.77"/>
</g>
<!-- src/domain/exception/UserAlreadyExistsException.ts -->
<g id="node13" class="node">
<title>src/domain/exception/UserAlreadyExistsException.ts</title>
<g id="a_node13"><a xlink:href="src/domain/exception/UserAlreadyExistsException.ts" xlink:title="no&#45;orphans">
<path fill="#ccffcc" stroke="orange" d="M895,-157C895,-157 754,-157 754,-157 751,-157 748,-154 748,-151 748,-151 748,-145 748,-145 748,-142 751,-139 754,-139 754,-139 895,-139 895,-139 898,-139 901,-142 901,-145 901,-145 901,-151 901,-151 901,-154 898,-157 895,-157"/>
<text text-anchor="middle" x="824.5" y="-145.8" font-family="Helvetica,sans-Serif" font-size="9.00" fill="orange">UserAlreadyExistsException.ts</text>
</a>
</g>
</g>
<!-- src/main.ts -->
<g id="node14" class="node">
<title>src/main.ts</title>
<g id="a_node14"><a xlink:href="src/main.ts" xlink:title="main.ts">
<path fill="#ddfeff" stroke="black" d="M64,-109C64,-109 22,-109 22,-109 19,-109 16,-106 16,-103 16,-103 16,-97 16,-97 16,-94 19,-91 22,-91 22,-91 64,-91 64,-91 67,-91 70,-94 70,-97 70,-97 70,-103 70,-103 70,-106 67,-109 64,-109"/>
<text text-anchor="middle" x="43" y="-97.8" font-family="Helvetica,sans-Serif" font-size="9.00">main.ts</text>
</a>
</g>
</g>
<!-- src/main.ts&#45;&gt;src/application/Application.ts -->
<g id="edge20" class="edge">
<title>src/main.ts&#45;&gt;src/application/Application.ts</title>
<path fill="none" stroke="#000000" stroke-width="2" stroke-opacity="0.200000" d="M70.33,-96.59C72.92,-96.35 75.51,-96.15 78,-96 186.26,-89.65 214.66,-80.54 322,-96 328.5,-96.94 335.34,-98.51 341.81,-100.3"/>
<polygon fill="#000000" fill-opacity="0.200000" stroke="#000000" stroke-width="2" stroke-opacity="0.200000" points="341.29,-102.33 347.63,-101.99 342.46,-98.3 341.29,-102.33"/>
</g>
<!-- src/main.ts&#45;&gt;src/application/ApplicationFactory.ts -->
<g id="edge21" class="edge">
<title>src/main.ts&#45;&gt;src/application/ApplicationFactory.ts</title>
<path fill="none" stroke="#000000" stroke-width="2" stroke-opacity="0.200000" d="M70.23,-103.01C73.29,-103.36 76.49,-103.72 79.77,-104.1"/>
<polygon fill="#000000" fill-opacity="0.200000" stroke="#000000" stroke-width="2" stroke-opacity="0.200000" points="79.56,-106.19 85.76,-104.78 80.04,-102.02 79.56,-106.19"/>
</g>
</g>
</svg>
