<?xml version="1.0" encoding="UTF-8" standalone="no"?>
<!DOCTYPE svg PUBLIC "-//W3C//DTD SVG 1.1//EN"
 "http://www.w3.org/Graphics/SVG/1.1/DTD/svg11.dtd">
<!-- Generated by graphviz version 2.43.0 (0)
 -->
<!-- Title: dependency&#45;cruiser output Pages: 1 -->
<svg width="1025pt" height="398pt"
 viewBox="0.00 0.00 1025.00 398.00" xmlns="http://www.w3.org/2000/svg" xmlns:xlink="http://www.w3.org/1999/xlink">
<g id="graph0" class="graph" transform="scale(1 1) rotate(0) translate(4 394)">
<title>dependency&#45;cruiser output</title>
<polygon fill="white" stroke="transparent" points="-4,4 -4,-394 1021,-394 1021,4 -4,4"/>
<g id="clust1" class="cluster">
<title>cluster_src</title>
<path fill="#ffffff" stroke="black" stroke-width="2" d="M20,-8C20,-8 997,-8 997,-8 1003,-8 1009,-14 1009,-20 1009,-20 1009,-370 1009,-370 1009,-376 1003,-382 997,-382 997,-382 20,-382 20,-382 14,-382 8,-376 8,-370 8,-370 8,-20 8,-20 8,-14 14,-8 20,-8"/>
<text text-anchor="middle" x="508.5" y="-370.8" font-family="Helvetica,sans-Serif" font-weight="bold" font-size="9.00">src</text>
</g>
<g id="clust2" class="cluster">
<title>cluster_src/adapter</title>
<path fill="#ffffff" stroke="black" stroke-width="2" d="M447,-86C447,-86 718,-86 718,-86 724,-86 730,-92 730,-98 730,-98 730,-344 730,-344 730,-350 724,-356 718,-356 718,-356 447,-356 447,-356 441,-356 435,-350 435,-344 435,-344 435,-98 435,-98 435,-92 441,-86 447,-86"/>
<text text-anchor="middle" x="582.5" y="-344.8" font-family="Helvetica,sans-Serif" font-weight="bold" font-size="9.00">adapter</text>
</g>
<g id="clust3" class="cluster">
<title>cluster_src/adapter/controller</title>
<path fill="#ffffff" stroke="black" stroke-width="2" d="M463,-94C463,-94 546,-94 546,-94 552,-94 558,-100 558,-106 558,-106 558,-134 558,-134 558,-140 552,-146 546,-146 546,-146 463,-146 463,-146 457,-146 451,-140 451,-134 451,-134 451,-106 451,-106 451,-100 457,-94 463,-94"/>
<text text-anchor="middle" x="504.5" y="-134.8" font-family="Helvetica,sans-Serif" font-weight="bold" font-size="9.00">controller</text>
</g>
<g id="clust4" class="cluster">
<title>cluster_src/adapter/repository</title>
<path fill="#ffffff" stroke="black" stroke-width="2" d="M455,-154C455,-154 710,-154 710,-154 716,-154 722,-160 722,-166 722,-166 722,-318 722,-318 722,-324 716,-330 710,-330 710,-330 455,-330 455,-330 449,-330 443,-324 443,-318 443,-318 443,-166 443,-166 443,-160 449,-154 455,-154"/>
<text text-anchor="middle" x="582.5" y="-318.8" font-family="Helvetica,sans-Serif" font-weight="bold" font-size="9.00">repository</text>
</g>
<g id="clust5" class="cluster">
<title>cluster_src/adapter/repository/memory</title>
<path fill="#ffffff" stroke="black" stroke-width="2" d="M579,-162C579,-162 701,-162 701,-162 707,-162 713,-168 713,-174 713,-174 713,-202 713,-202 713,-208 707,-214 701,-214 701,-214 579,-214 579,-214 573,-214 567,-208 567,-202 567,-202 567,-174 567,-174 567,-168 573,-162 579,-162"/>
<text text-anchor="middle" x="640" y="-202.8" font-family="Helvetica,sans-Serif" font-weight="bold" font-size="9.00">memory</text>
</g>
<g id="clust6" class="cluster">
<title>cluster_src/adapter/repository/postgres</title>
<path fill="#ffffff" stroke="black" stroke-width="2" d="M578,-222C578,-222 702,-222 702,-222 708,-222 714,-228 714,-234 714,-234 714,-292 714,-292 714,-298 708,-304 702,-304 702,-304 578,-304 578,-304 572,-304 566,-298 566,-292 566,-292 566,-234 566,-234 566,-228 572,-222 578,-222"/>
<text text-anchor="middle" x="640" y="-292.8" font-family="Helvetica,sans-Serif" font-weight="bold" font-size="9.00">postgres</text>
</g>
<g id="clust7" class="cluster">
<title>cluster_src/application</title>
<path fill="#ffffff" stroke="black" stroke-width="2" d="M90,-86C90,-86 415,-86 415,-86 421,-86 427,-92 427,-98 427,-98 427,-220 427,-220 427,-226 421,-232 415,-232 415,-232 90,-232 90,-232 84,-232 78,-226 78,-220 78,-220 78,-98 78,-98 78,-92 84,-86 90,-86"/>
<text text-anchor="middle" x="252.5" y="-220.8" font-family="Helvetica,sans-Serif" font-weight="bold" font-size="9.00">application</text>
</g>
<g id="clust8" class="cluster">
<title>cluster_src/application/express</title>
<path fill="#ffffff" stroke="black" stroke-width="2" d="M216,-94C216,-94 321,-94 321,-94 327,-94 333,-100 333,-106 333,-106 333,-134 333,-134 333,-140 327,-146 321,-146 321,-146 216,-146 216,-146 210,-146 204,-140 204,-134 204,-134 204,-106 204,-106 204,-100 210,-94 216,-94"/>
<text text-anchor="middle" x="268.5" y="-134.8" font-family="Helvetica,sans-Serif" font-weight="bold" font-size="9.00">express</text>
</g>
<g id="clust9" class="cluster">
<title>cluster_src/application/fastify</title>
<path fill="#ffffff" stroke="black" stroke-width="2" d="M219,-154C219,-154 318,-154 318,-154 324,-154 330,-160 330,-166 330,-166 330,-194 330,-194 330,-200 324,-206 318,-206 318,-206 219,-206 219,-206 213,-206 207,-200 207,-194 207,-194 207,-166 207,-166 207,-160 213,-154 219,-154"/>
<text text-anchor="middle" x="268.5" y="-194.8" font-family="Helvetica,sans-Serif" font-weight="bold" font-size="9.00">fastify</text>
</g>
<g id="clust10" class="cluster">
<title>cluster_src/domain</title>
<path fill="#ffffff" stroke="black" stroke-width="2" d="M750,-63C750,-63 989,-63 989,-63 995,-63 1001,-69 1001,-75 1001,-75 1001,-197 1001,-197 1001,-203 995,-209 989,-209 989,-209 750,-209 750,-209 744,-209 738,-203 738,-197 738,-197 738,-75 738,-75 738,-69 744,-63 750,-63"/>
<text text-anchor="middle" x="869.5" y="-197.8" font-family="Helvetica,sans-Serif" font-weight="bold" font-size="9.00">domain</text>
</g>
<g id="clust11" class="cluster">
<title>cluster_src/domain/entity</title>
<path fill="#ffffff" stroke="black" stroke-width="2" d="M935,-101C935,-101 981,-101 981,-101 987,-101 993,-107 993,-113 993,-113 993,-141 993,-141 993,-147 987,-153 981,-153 981,-153 935,-153 935,-153 929,-153 923,-147 923,-141 923,-141 923,-113 923,-113 923,-107 929,-101 935,-101"/>
<text text-anchor="middle" x="958" y="-141.8" font-family="Helvetica,sans-Serif" font-weight="bold" font-size="9.00">entity</text>
</g>
<g id="clust12" class="cluster">
<title>cluster_src/domain/exception</title>
<path fill="#ffffff" stroke="black" stroke-width="2" d="M758,-131C758,-131 903,-131 903,-131 909,-131 915,-137 915,-143 915,-143 915,-171 915,-171 915,-177 909,-183 903,-183 903,-183 758,-183 758,-183 752,-183 746,-177 746,-171 746,-171 746,-143 746,-143 746,-137 752,-131 758,-131"/>
<text text-anchor="middle" x="830.5" y="-171.8" font-family="Helvetica,sans-Serif" font-weight="bold" font-size="9.00">exception</text>
</g>
<g id="clust13" class="cluster">
<title>cluster_src/domain/port</title>
<path fill="#ffffff" stroke="black" stroke-width="2" d="M787.5,-71C787.5,-71 873.5,-71 873.5,-71 879.5,-71 885.5,-77 885.5,-83 885.5,-83 885.5,-111 885.5,-111 885.5,-117 879.5,-123 873.5,-123 873.5,-123 787.5,-123 787.5,-123 781.5,-123 775.5,-117 775.5,-111 775.5,-111 775.5,-83 775.5,-83 775.5,-77 781.5,-71 787.5,-71"/>
<text text-anchor="middle" x="830.5" y="-111.8" font-family="Helvetica,sans-Serif" font-weight="bold" font-size="9.00">port</text>
</g>
<g id="clust14" class="cluster">
<title>cluster_src/usecase</title>
<path fill="#ffffff" stroke="black" stroke-width="2" d="M610,-16C610,-16 670,-16 670,-16 676,-16 682,-22 682,-28 682,-28 682,-56 682,-56 682,-62 676,-68 670,-68 670,-68 610,-68 610,-68 604,-68 598,-62 598,-56 598,-56 598,-28 598,-28 598,-22 604,-16 610,-16"/>
<text text-anchor="middle" x="640" y="-56.8" font-family="Helvetica,sans-Serif" font-weight="bold" font-size="9.00">usecase</text>
</g>
<!-- src/adapter/controller/UserController.ts -->
<g id="node1" class="node">
<title>src/adapter/controller/UserController.ts</title>
<g id="a_node1"><a xlink:href="src/adapter/controller/UserController.ts" xlink:title="UserController.ts">
<path fill="#ddfeff" stroke="black" d="M544,-120C544,-120 465,-120 465,-120 462,-120 459,-117 459,-114 459,-114 459,-108 459,-108 459,-105 462,-102 465,-102 465,-102 544,-102 544,-102 547,-102 550,-105 550,-108 550,-108 550,-114 550,-114 550,-117 547,-120 544,-120"/>
<text text-anchor="middle" x="504.5" y="-108.8" font-family="Helvetica,sans-Serif" font-size="9.00">UserController.ts</text>
</a>
</g>
</g>
<!-- src/usecase/GetUsers.ts -->
<g id="node2" class="node">
<title>src/usecase/GetUsers.ts</title>
<g id="a_node2"><a xlink:href="src/usecase/GetUsers.ts" xlink:title="GetUsers.ts">
<path fill="#ddfeff" stroke="black" d="M668,-42C668,-42 612,-42 612,-42 609,-42 606,-39 606,-36 606,-36 606,-30 606,-30 606,-27 609,-24 612,-24 612,-24 668,-24 668,-24 671,-24 674,-27 674,-30 674,-30 674,-36 674,-36 674,-39 671,-42 668,-42"/>
<text text-anchor="middle" x="640" y="-30.8" font-family="Helvetica,sans-Serif" font-size="9.00">GetUsers.ts</text>
</a>
</g>
</g>
<!-- src/adapter/controller/UserController.ts&#45;&gt;src/usecase/GetUsers.ts -->
<g id="edge1" class="edge">
<title>src/adapter/controller/UserController.ts&#45;&gt;src/usecase/GetUsers.ts</title>
<path fill="none" stroke="#000000" stroke-width="2" stroke-opacity="0.200000" d="M521.08,-101.9C545.09,-87.87 591.19,-60.93 618.09,-45.22"/>
<polygon fill="#000000" fill-opacity="0.200000" stroke="#000000" stroke-width="2" stroke-opacity="0.200000" points="619.4,-46.88 623.52,-42.04 617.28,-43.26 619.4,-46.88"/>
</g>
<!-- src/domain/port/UserRepository.ts -->
<g id="node4" class="node">
<title>src/domain/port/UserRepository.ts</title>
<g id="a_node4"><a xlink:href="src/domain/port/UserRepository.ts" xlink:title="UserRepository.ts">
<path fill="#ddfeff" stroke="black" d="M871.5,-97C871.5,-97 789.5,-97 789.5,-97 786.5,-97 783.5,-94 783.5,-91 783.5,-91 783.5,-85 783.5,-85 783.5,-82 786.5,-79 789.5,-79 789.5,-79 871.5,-79 871.5,-79 874.5,-79 877.5,-82 877.5,-85 877.5,-85 877.5,-91 877.5,-91 877.5,-94 874.5,-97 871.5,-97"/>
<text text-anchor="middle" x="830.5" y="-85.8" font-family="Helvetica,sans-Serif" font-size="9.00">UserRepository.ts</text>
</a>
</g>
</g>
<!-- src/usecase/GetUsers.ts&#45;&gt;src/domain/port/UserRepository.ts -->
<g id="edge23" class="edge">
<title>src/usecase/GetUsers.ts&#45;&gt;src/domain/port/UserRepository.ts</title>
<path fill="none" stroke="#000000" stroke-width="2" stroke-opacity="0.200000" d="M672.13,-42.08C705.24,-51.74 757.6,-67.02 792.72,-77.27"/>
<polygon fill="#000000" fill-opacity="0.200000" stroke="#000000" stroke-width="2" stroke-opacity="0.200000" points="792.29,-79.33 798.64,-79 793.47,-75.3 792.29,-79.33"/>
</g>
<!-- src/domain/entity/User.ts -->
<g id="node8" class="node">
<title>src/domain/entity/User.ts</title>
<g id="a_node8"><a xlink:href="src/domain/entity/User.ts" xlink:title="User.ts">
<path fill="#ddfeff" stroke="black" d="M979,-127C979,-127 937,-127 937,-127 934,-127 931,-124 931,-121 931,-121 931,-115 931,-115 931,-112 934,-109 937,-109 937,-109 979,-109 979,-109 982,-109 985,-112 985,-115 985,-115 985,-121 985,-121 985,-124 982,-127 979,-127"/>
<text text-anchor="middle" x="958" y="-115.8" font-family="Helvetica,sans-Serif" font-size="9.00">User.ts</text>
</a>
</g>
</g>
<!-- src/usecase/GetUsers.ts&#45;&gt;src/domain/entity/User.ts -->
<g id="edge22" class="edge">
<title>src/usecase/GetUsers.ts&#45;&gt;src/domain/entity/User.ts</title>
<path fill="none" stroke="#000000" stroke-width="2" stroke-opacity="0.200000" d="M674.13,-29.8C728.13,-26.15 836.91,-25.38 915,-68 929.88,-76.12 941.71,-91.81 948.97,-103.46"/>
<polygon fill="#000000" fill-opacity="0.200000" stroke="#000000" stroke-width="2" stroke-opacity="0.200000" points="947.28,-104.73 952.16,-108.81 950.89,-102.58 947.28,-104.73"/>
</g>
<!-- src/adapter/repository/RepositoryFactory.ts -->
<g id="node3" class="node">
<title>src/adapter/repository/RepositoryFactory.ts</title>
<g id="a_node3"><a xlink:href="src/adapter/repository/RepositoryFactory.ts" xlink:title="RepositoryFactory.ts">
<path fill="#ddfeff" stroke="black" d="M552,-188C552,-188 457,-188 457,-188 454,-188 451,-185 451,-182 451,-182 451,-176 451,-176 451,-173 454,-170 457,-170 457,-170 552,-170 552,-170 555,-170 558,-173 558,-176 558,-176 558,-182 558,-182 558,-185 555,-188 552,-188"/>
<text text-anchor="middle" x="504.5" y="-176.8" font-family="Helvetica,sans-Serif" font-size="9.00">RepositoryFactory.ts</text>
</a>
</g>
</g>
<!-- src/adapter/repository/RepositoryFactory.ts&#45;&gt;src/domain/port/UserRepository.ts -->
<g id="edge2" class="edge">
<title>src/adapter/repository/RepositoryFactory.ts&#45;&gt;src/domain/port/UserRepository.ts</title>
<path fill="none" stroke="#000000" stroke-width="2" stroke-opacity="0.200000" d="M531.9,-169.92C542.46,-166.37 554.77,-162.37 566,-159 643.78,-135.68 735.53,-111.76 787.67,-98.5"/>
<polygon fill="#000000" fill-opacity="0.200000" stroke="#000000" stroke-width="2" stroke-opacity="0.200000" points="788.22,-100.53 793.52,-97.01 787.19,-96.45 788.22,-100.53"/>
</g>
<!-- src/adapter/repository/memory/MemoryUserRepository.ts -->
<g id="node5" class="node">
<title>src/adapter/repository/memory/MemoryUserRepository.ts</title>
<g id="a_node5"><a xlink:href="src/adapter/repository/memory/MemoryUserRepository.ts" xlink:title="MemoryUserRepository.ts">
<path fill="#ddfeff" stroke="black" d="M699,-188C699,-188 581,-188 581,-188 578,-188 575,-185 575,-182 575,-182 575,-176 575,-176 575,-173 578,-170 581,-170 581,-170 699,-170 699,-170 702,-170 705,-173 705,-176 705,-176 705,-182 705,-182 705,-185 702,-188 699,-188"/>
<text text-anchor="middle" x="640" y="-176.8" font-family="Helvetica,sans-Serif" font-size="9.00">MemoryUserRepository.ts</text>
</a>
</g>
</g>
<!-- src/adapter/repository/RepositoryFactory.ts&#45;&gt;src/adapter/repository/memory/MemoryUserRepository.ts -->
<g id="edge3" class="edge">
<title>src/adapter/repository/RepositoryFactory.ts&#45;&gt;src/adapter/repository/memory/MemoryUserRepository.ts</title>
<path fill="none" stroke="#000000" stroke-width="2" stroke-opacity="0.200000" d="M558.26,-179C561.63,-179 565.05,-179 568.49,-179"/>
<polygon fill="#000000" fill-opacity="0.200000" stroke="#000000" stroke-width="2" stroke-opacity="0.200000" points="568.68,-181.1 574.68,-179 568.68,-176.9 568.68,-181.1"/>
</g>
<!-- src/adapter/repository/postgres/PostgresDatabase.ts -->
<g id="node6" class="node">
<title>src/adapter/repository/postgres/PostgresDatabase.ts</title>
<g id="a_node6"><a xlink:href="src/adapter/repository/postgres/PostgresDatabase.ts" xlink:title="PostgresDatabase.ts">
<path fill="#ddfeff" stroke="black" d="M688,-278C688,-278 592,-278 592,-278 589,-278 586,-275 586,-272 586,-272 586,-266 586,-266 586,-263 589,-260 592,-260 592,-260 688,-260 688,-260 691,-260 694,-263 694,-266 694,-266 694,-272 694,-272 694,-275 691,-278 688,-278"/>
<text text-anchor="middle" x="640" y="-266.8" font-family="Helvetica,sans-Serif" font-size="9.00">PostgresDatabase.ts</text>
</a>
</g>
</g>
<!-- src/adapter/repository/RepositoryFactory.ts&#45;&gt;src/adapter/repository/postgres/PostgresDatabase.ts -->
<g id="edge4" class="edge">
<title>src/adapter/repository/RepositoryFactory.ts&#45;&gt;src/adapter/repository/postgres/PostgresDatabase.ts</title>
<path fill="none" stroke="#000000" stroke-width="2" stroke-opacity="0.200000" d="M517.49,-188.13C529.28,-197.66 547.05,-213.64 558,-231 563.77,-240.16 557.86,-246.87 566,-254 570.15,-257.63 574.93,-260.47 580.03,-262.68"/>
<polygon fill="#000000" fill-opacity="0.200000" stroke="#000000" stroke-width="2" stroke-opacity="0.200000" points="579.32,-264.65 585.67,-264.83 580.82,-260.73 579.32,-264.65"/>
</g>
<!-- src/adapter/repository/postgres/PostgresUserRepository.ts -->
<g id="node7" class="node">
<title>src/adapter/repository/postgres/PostgresUserRepository.ts</title>
<g id="a_node7"><a xlink:href="src/adapter/repository/postgres/PostgresUserRepository.ts" xlink:title="PostgresUserRepository.ts">
<path fill="#ddfeff" stroke="black" d="M700,-248C700,-248 580,-248 580,-248 577,-248 574,-245 574,-242 574,-242 574,-236 574,-236 574,-233 577,-230 580,-230 580,-230 700,-230 700,-230 703,-230 706,-233 706,-236 706,-236 706,-242 706,-242 706,-245 703,-248 700,-248"/>
<text text-anchor="middle" x="640" y="-236.8" font-family="Helvetica,sans-Serif" font-size="9.00">PostgresUserRepository.ts</text>
</a>
</g>
</g>
<!-- src/adapter/repository/RepositoryFactory.ts&#45;&gt;src/adapter/repository/postgres/PostgresUserRepository.ts -->
<g id="edge5" class="edge">
<title>src/adapter/repository/RepositoryFactory.ts&#45;&gt;src/adapter/repository/postgres/PostgresUserRepository.ts</title>
<path fill="none" stroke="#000000" stroke-width="2" stroke-opacity="0.200000" d="M517.92,-188.2C529.77,-196.63 548.39,-208.99 566,-217 575.47,-221.31 586,-225.04 596.05,-228.15"/>
<polygon fill="#000000" fill-opacity="0.200000" stroke="#000000" stroke-width="2" stroke-opacity="0.200000" points="595.56,-230.19 601.91,-229.91 596.76,-226.17 595.56,-230.19"/>
</g>
<!-- src/domain/port/UserRepository.ts&#45;&gt;src/domain/entity/User.ts -->
<g id="edge19" class="edge">
<title>src/domain/port/UserRepository.ts&#45;&gt;src/domain/entity/User.ts</title>
<path fill="none" stroke="#000000" stroke-width="2" stroke-opacity="0.200000" d="M869.15,-97C886.9,-101.24 907.86,-106.25 924.85,-110.31"/>
<polygon fill="#000000" fill-opacity="0.200000" stroke="#000000" stroke-width="2" stroke-opacity="0.200000" points="924.59,-112.41 930.92,-111.76 925.57,-108.33 924.59,-112.41"/>
</g>
<!-- src/adapter/repository/memory/MemoryUserRepository.ts&#45;&gt;src/domain/port/UserRepository.ts -->
<g id="edge7" class="edge">
<title>src/adapter/repository/memory/MemoryUserRepository.ts&#45;&gt;src/domain/port/UserRepository.ts</title>
<path fill="none" stroke="#000000" stroke-width="2" stroke-opacity="0.200000" d="M657.29,-169.97C676.42,-159.48 709.19,-141.85 738,-128 759.06,-117.88 783.3,-107.33 801.54,-99.61"/>
<polygon fill="#000000" fill-opacity="0.200000" stroke="#000000" stroke-width="2" stroke-opacity="0.200000" points="802.77,-101.37 807.48,-97.1 801.14,-97.5 802.77,-101.37"/>
</g>
<!-- src/adapter/repository/memory/MemoryUserRepository.ts&#45;&gt;src/domain/entity/User.ts -->
<g id="edge6" class="edge">
<title>src/adapter/repository/memory/MemoryUserRepository.ts&#45;&gt;src/domain/entity/User.ts</title>
<path fill="none" stroke="#000000" stroke-width="2" stroke-opacity="0.200000" d="M667.64,-188.07C719.19,-203.9 834.58,-230.85 915,-186 935.11,-174.78 946.8,-149.53 952.53,-133.15"/>
<polygon fill="#000000" fill-opacity="0.200000" stroke="#000000" stroke-width="2" stroke-opacity="0.200000" points="954.63,-133.51 954.51,-127.16 950.64,-132.2 954.63,-133.51"/>
</g>
<!-- src/adapter/repository/postgres/PostgresUserRepository.ts&#45;&gt;src/domain/port/UserRepository.ts -->
<g id="edge9" class="edge">
<title>src/adapter/repository/postgres/PostgresUserRepository.ts&#45;&gt;src/domain/port/UserRepository.ts</title>
<path fill="none" stroke="#000000" stroke-width="2" stroke-opacity="0.200000" d="M706.24,-232.98C715.32,-229.48 723.68,-224.37 730,-217 742.93,-201.93 726.39,-144.11 738,-128 747.93,-114.22 763.66,-105.13 779.29,-99.15"/>
<polygon fill="#000000" fill-opacity="0.200000" stroke="#000000" stroke-width="2" stroke-opacity="0.200000" points="780.1,-101.09 785.04,-97.09 778.68,-97.14 780.1,-101.09"/>
</g>
<!-- src/adapter/repository/postgres/PostgresUserRepository.ts&#45;&gt;src/domain/entity/User.ts -->
<g id="edge8" class="edge">
<title>src/adapter/repository/postgres/PostgresUserRepository.ts&#45;&gt;src/domain/entity/User.ts</title>
<path fill="none" stroke="#000000" stroke-width="2" stroke-opacity="0.200000" d="M706.17,-246.43C765.95,-249.75 854.18,-245.48 915,-202 938.12,-185.47 949.23,-152.51 953.96,-133.16"/>
<polygon fill="#000000" fill-opacity="0.200000" stroke="#000000" stroke-width="2" stroke-opacity="0.200000" points="956.04,-133.47 955.33,-127.16 951.95,-132.54 956.04,-133.47"/>
</g>
<!-- src/application/Application.ts -->
<g id="node9" class="node">
<title>src/application/Application.ts</title>
<g id="a_node9"><a xlink:href="src/application/Application.ts" xlink:title="Application.ts">
<path fill="#ddfeff" stroke="black" d="M413,-120C413,-120 347,-120 347,-120 344,-120 341,-117 341,-114 341,-114 341,-108 341,-108 341,-105 344,-102 347,-102 347,-102 413,-102 413,-102 416,-102 419,-105 419,-108 419,-108 419,-114 419,-114 419,-117 416,-120 413,-120"/>
<text text-anchor="middle" x="380" y="-108.8" font-family="Helvetica,sans-Serif" font-size="9.00">Application.ts</text>
</a>
</g>
</g>
<!-- src/application/Application.ts&#45;&gt;src/adapter/controller/UserController.ts -->
<g id="edge10" class="edge">
<title>src/application/Application.ts&#45;&gt;src/adapter/controller/UserController.ts</title>
<path fill="none" stroke="#000000" stroke-width="2" stroke-opacity="0.200000" d="M419.09,-111C429.76,-111 441.52,-111 452.8,-111"/>
<polygon fill="#000000" fill-opacity="0.200000" stroke="#000000" stroke-width="2" stroke-opacity="0.200000" points="453,-113.1 459,-111 453,-108.9 453,-113.1"/>
</g>
<!-- src/application/Application.ts&#45;&gt;src/usecase/GetUsers.ts -->
<g id="edge14" class="edge">
<title>src/application/Application.ts&#45;&gt;src/usecase/GetUsers.ts</title>
<path fill="none" stroke="#000000" stroke-width="2" stroke-opacity="0.200000" d="M391.36,-101.68C401.68,-92.92 418.34,-80.11 435,-73 489.42,-49.77 557.8,-39.89 599.94,-35.79"/>
<polygon fill="#000000" fill-opacity="0.200000" stroke="#000000" stroke-width="2" stroke-opacity="0.200000" points="600.19,-37.87 605.96,-35.22 599.79,-33.69 600.19,-37.87"/>
</g>
<!-- src/application/Application.ts&#45;&gt;src/adapter/repository/RepositoryFactory.ts -->
<g id="edge12" class="edge">
<title>src/application/Application.ts&#45;&gt;src/adapter/repository/RepositoryFactory.ts</title>
<path fill="none" stroke="#000000" stroke-width="2" stroke-opacity="0.200000" d="M392.56,-120.16C403.2,-128.34 419.62,-140.34 435,-149 447.35,-155.95 461.62,-162.43 473.92,-167.57"/>
<polygon fill="#000000" fill-opacity="0.200000" stroke="#000000" stroke-width="2" stroke-opacity="0.200000" points="473.44,-169.65 479.79,-169.99 475.04,-165.76 473.44,-169.65"/>
</g>
<!-- src/application/Application.ts&#45;&gt;src/domain/port/UserRepository.ts -->
<g id="edge13" class="edge">
<title>src/application/Application.ts&#45;&gt;src/domain/port/UserRepository.ts</title>
<path fill="none" stroke="#000000" stroke-width="2" stroke-opacity="0.200000" d="M400.54,-101.89C410.6,-97.69 423.2,-93.16 435,-91 555.9,-68.86 701.15,-76.28 777.21,-82.7"/>
<polygon fill="#000000" fill-opacity="0.200000" stroke="#000000" stroke-width="2" stroke-opacity="0.200000" points="777.3,-84.82 783.46,-83.24 777.66,-80.64 777.3,-84.82"/>
</g>
<!-- src/application/Application.ts&#45;&gt;src/adapter/repository/postgres/PostgresDatabase.ts -->
<g id="edge11" class="edge">
<title>src/application/Application.ts&#45;&gt;src/adapter/repository/postgres/PostgresDatabase.ts</title>
<path fill="none" stroke="#000000" stroke-width="2" stroke-opacity="0.200000" d="M382.28,-120.19C385.94,-142.8 398.63,-201.37 435,-230 475.86,-262.16 535.43,-270.47 579.65,-271.58"/>
<polygon fill="#000000" fill-opacity="0.200000" stroke="#000000" stroke-width="2" stroke-opacity="0.200000" points="579.75,-273.69 585.79,-271.7 579.83,-269.49 579.75,-273.69"/>
</g>
<!-- src/application/ApplicationFactory.ts -->
<g id="node10" class="node">
<title>src/application/ApplicationFactory.ts</title>
<g id="a_node10"><a xlink:href="src/application/ApplicationFactory.ts" xlink:title="ApplicationFactory.ts">
<path fill="#ddfeff" stroke="black" d="M190,-120C190,-120 92,-120 92,-120 89,-120 86,-117 86,-114 86,-114 86,-108 86,-108 86,-105 89,-102 92,-102 92,-102 190,-102 190,-102 193,-102 196,-105 196,-108 196,-108 196,-114 196,-114 196,-117 193,-120 190,-120"/>
<text text-anchor="middle" x="141" y="-108.8" font-family="Helvetica,sans-Serif" font-size="9.00">ApplicationFactory.ts</text>
</a>
</g>
</g>
<!-- src/application/express/ExpressApplication.ts -->
<g id="node11" class="node">
<title>src/application/express/ExpressApplication.ts</title>
<g id="a_node11"><a xlink:href="src/application/express/ExpressApplication.ts" xlink:title="ExpressApplication.ts">
<path fill="#ddfeff" stroke="black" d="M319,-120C319,-120 218,-120 218,-120 215,-120 212,-117 212,-114 212,-114 212,-108 212,-108 212,-105 215,-102 218,-102 218,-102 319,-102 319,-102 322,-102 325,-105 325,-108 325,-108 325,-114 325,-114 325,-117 322,-120 319,-120"/>
<text text-anchor="middle" x="268.5" y="-108.8" font-family="Helvetica,sans-Serif" font-size="9.00">ExpressApplication.ts</text>
</a>
</g>
</g>
<!-- src/application/ApplicationFactory.ts&#45;&gt;src/application/express/ExpressApplication.ts -->
<g id="edge15" class="edge">
<title>src/application/ApplicationFactory.ts&#45;&gt;src/application/express/ExpressApplication.ts</title>
<path fill="none" stroke="#000000" stroke-width="2" stroke-opacity="0.200000" d="M196.32,-111C199.38,-111 202.48,-111 205.57,-111"/>
<polygon fill="#000000" fill-opacity="0.200000" stroke="#000000" stroke-width="2" stroke-opacity="0.200000" points="205.91,-113.1 211.91,-111 205.91,-108.9 205.91,-113.1"/>
</g>
<!-- src/application/fastify/FastifyApplication.ts -->
<g id="node12" class="node">
<title>src/application/fastify/FastifyApplication.ts</title>
<g id="a_node12"><a xlink:href="src/application/fastify/FastifyApplication.ts" xlink:title="FastifyApplication.ts">
<path fill="#ddfeff" stroke="black" d="M316,-180C316,-180 221,-180 221,-180 218,-180 215,-177 215,-174 215,-174 215,-168 215,-168 215,-165 218,-162 221,-162 221,-162 316,-162 316,-162 319,-162 322,-165 322,-168 322,-168 322,-174 322,-174 322,-177 319,-180 316,-180"/>
<text text-anchor="middle" x="268.5" y="-168.8" font-family="Helvetica,sans-Serif" font-size="9.00">FastifyApplication.ts</text>
</a>
</g>
</g>
<!-- src/application/ApplicationFactory.ts&#45;&gt;src/application/fastify/FastifyApplication.ts -->
<g id="edge16" class="edge">
<title>src/application/ApplicationFactory.ts&#45;&gt;src/application/fastify/FastifyApplication.ts</title>
<path fill="none" stroke="#000000" stroke-width="2" stroke-opacity="0.200000" d="M154.84,-120.01C167.07,-128.31 186.2,-140.58 204,-149 212.57,-153.05 222.09,-156.74 231.1,-159.9"/>
<polygon fill="#000000" fill-opacity="0.200000" stroke="#000000" stroke-width="2" stroke-opacity="0.200000" points="230.57,-161.94 236.93,-161.9 231.93,-157.97 230.57,-161.94"/>
</g>
<!-- src/application/express/ExpressApplication.ts&#45;&gt;src/application/Application.ts -->
<g id="edge17" class="edge">
<title>src/application/express/ExpressApplication.ts&#45;&gt;src/application/Application.ts</title>
<path fill="none" stroke="#000000" stroke-width="2" stroke-opacity="0.200000" d="M325.21,-111C328.35,-111 331.48,-111 334.57,-111"/>
<polygon fill="#000000" fill-opacity="0.200000" stroke="#000000" stroke-width="2" stroke-opacity="0.200000" points="334.83,-113.1 340.83,-111 334.83,-108.9 334.83,-113.1"/>
</g>
<!-- src/application/fastify/FastifyApplication.ts&#45;&gt;src/application/Application.ts -->
<g id="edge18" class="edge">
<title>src/application/fastify/FastifyApplication.ts&#45;&gt;src/application/Application.ts</title>
<path fill="none" stroke="#000000" stroke-width="2" stroke-opacity="0.200000" d="M302.77,-161.96C312.81,-158.58 323.64,-154.26 333,-149 344.89,-142.32 356.71,-132.46 365.39,-124.46"/>
<polygon fill="#000000" fill-opacity="0.200000" stroke="#000000" stroke-width="2" stroke-opacity="0.200000" points="366.95,-125.88 369.88,-120.24 364.07,-122.83 366.95,-125.88"/>
</g>
<!-- src/domain/exception/UserAlreadyExistsException.ts -->
<g id="node13" class="node">
<title>src/domain/exception/UserAlreadyExistsException.ts</title>
<g id="a_node13"><a xlink:href="src/domain/exception/UserAlreadyExistsException.ts" xlink:title="no&#45;orphans">
<path fill="#ccffcc" stroke="orange" d="M901,-157C901,-157 760,-157 760,-157 757,-157 754,-154 754,-151 754,-151 754,-145 754,-145 754,-142 757,-139 760,-139 760,-139 901,-139 901,-139 904,-139 907,-142 907,-145 907,-145 907,-151 907,-151 907,-154 904,-157 901,-157"/>
<text text-anchor="middle" x="830.5" y="-145.8" font-family="Helvetica,sans-Serif" font-size="9.00" fill="orange">UserAlreadyExistsException.ts</text>
</a>
</g>
</g>
<!-- src/main.ts -->
<g id="node14" class="node">
<title>src/main.ts</title>
<g id="a_node14"><a xlink:href="src/main.ts" xlink:title="main.ts">
<path fill="#ddfeff" stroke="black" d="M64,-107C64,-107 22,-107 22,-107 19,-107 16,-104 16,-101 16,-101 16,-95 16,-95 16,-92 19,-89 22,-89 22,-89 64,-89 64,-89 67,-89 70,-92 70,-95 70,-95 70,-101 70,-101 70,-104 67,-107 64,-107"/>
<text text-anchor="middle" x="43" y="-95.8" font-family="Helvetica,sans-Serif" font-size="9.00">main.ts</text>
</a>
</g>
</g>
<!-- src/main.ts&#45;&gt;src/application/Application.ts -->
<g id="edge20" class="edge">
<title>src/main.ts&#45;&gt;src/application/Application.ts</title>
<path fill="none" stroke="#000000" stroke-width="2" stroke-opacity="0.200000" d="M70.26,-93.42C121.46,-85.34 237.92,-71.22 333,-91 341.15,-92.7 349.63,-95.92 357.06,-99.28"/>
<polygon fill="#000000" fill-opacity="0.200000" stroke="#000000" stroke-width="2" stroke-opacity="0.200000" points="356.19,-101.19 362.51,-101.87 357.99,-97.4 356.19,-101.19"/>
</g>
<!-- src/main.ts&#45;&gt;src/application/ApplicationFactory.ts -->
<g id="edge21" class="edge">
<title>src/main.ts&#45;&gt;src/application/ApplicationFactory.ts</title>
<path fill="none" stroke="#000000" stroke-width="2" stroke-opacity="0.200000" d="M70.23,-101.55C73.29,-101.97 76.49,-102.4 79.77,-102.84"/>
<polygon fill="#000000" fill-opacity="0.200000" stroke="#000000" stroke-width="2" stroke-opacity="0.200000" points="79.53,-104.93 85.76,-103.65 80.09,-100.77 79.53,-104.93"/>
</g>
</g>
</svg>
